<svg xmlns="http://www.w3.org/2000/svg" xmlns:xlink="http://www.w3.org/1999/xlink" x="0px" y="0px" viewBox="0 0 314.189 314.189" style="enable-background:new 0 0 314.189 314.189;" xml:space="preserve"><path style="fill:#FCB043;" d="M221.716,261.335c-5.282-9.253-10.68-18.47-16.15-27.607c-12.192-20.372-40.404-24.265-57.102-7.387 c-4.367,4.414-7.593,8.983-9.788,12.59c-2.422,3.981-7.369,5.659-11.695,3.927c-73.744-29.531-75.297-87.366-72.446-111.263 c0.658-5.511,5.815-9.425,11.255-8.324c8.785,1.777,16.359,1.86,22.861,0.841c19.347-3.032,28.545-25.637,17.152-41.564 c-11.349-15.867-21.487-29.67-29.77-40.782C65.13,27.138,43.058,26.934,32.252,41.634C10.883,70.703-1.276,106.957,0.107,146.114 c3.088,87.465,74.854,158.349,162.347,160.434c14.082,0.336,27.776-1.082,40.884-4.048 C221.751,298.333,231.074,277.731,221.716,261.335z"></path><g> <path style="fill:#E2791B;" d="M99.305,94.91L99.305,94.91c-2.556,1.89-6.16,1.349-8.05-1.208L63.676,56.387  c-1.889-2.556-1.349-6.16,1.208-8.05l0,0c2.556-1.889,6.161-1.349,8.05,1.208l27.579,37.315  C102.402,89.417,101.862,93.021,99.305,94.91z"></path> <path style="fill:#E2791B;" d="M215.563,279.149L215.563,279.149c-2.753,1.59-6.273,0.646-7.862-2.106l-23.2-40.185  c-1.59-2.752-0.646-6.272,2.106-7.862l0,0c2.753-1.589,6.273-0.646,7.862,2.106l23.201,40.185  C219.258,274.039,218.315,277.56,215.563,279.149z"></path></g><path style="fill:#DEF2FC;" d="M314.189,88.673c0-46.519-39.175-83.888-86.334-80.915c-41.381,2.608-74.569,37.02-75.791,78.464 c-1.187,40.233,26.946,74.112,64.617,81.865l2.424,23.972c0.472,4.66,6.695,5.887,8.898,1.754l13.041-24.45 C282.099,165.373,314.189,130.775,314.189,88.673z"></path><g> <circle style="fill:#403A46;" cx="203.766" cy="114.044" r="5.97"></circle> <circle style="fill:#403A46;" cx="233.055" cy="114.044" r="5.969"></circle> <circle style="fill:#403A46;" cx="262.845" cy="114.044" r="5.969"></circle></g></svg>